<?xml version="1.0" encoding="utf-8" ?>
<svg xmlns="http://www.w3.org/2000/svg" xmlns:xlink="http://www.w3.org/1999/xlink" width="20" height="20" viewBox="0 0 20 20">
	<defs>
		<clipPath id="clipPath3550613107">
			<path d="M0 0L20 0L20 20L0 20L0 0Z" fill-rule="nonzero" transform="matrix(1 0 0 1 0 0)"/>
		</clipPath>
	</defs>
	<g clip-path="url(#clipPath3550613107)">
		<defs>
			<clipPath id="clipPath8528759807">
				<path d="M0 0L20 0L20 20L0 20L0 0Z" fill-rule="nonzero" transform="matrix(1 0 0 1 -0 -0)"/>
			</clipPath>
		</defs>
		<g clip-path="url(#clipPath8528759807)">
			<path d="M10.625 8.75C12.6871 8.75 14.509 6.8082 14.6875 4.42109C14.7762 3.22188 14.4 2.10352 13.6281 1.27266C12.8645 0.451953 11.7969 0 10.625 0C9.44375 0 8.37539 0.449219 7.61719 1.26484C6.85039 2.08945 6.47656 3.21016 6.5625 4.42031C6.73789 6.80781 8.55937 8.75 10.625 8.75ZM18.7258 15.9281C18.3961 14.0992 17.3668 12.5629 15.7496 11.4848C14.3133 10.5273 12.4934 10 10.625 10C8.75664 10 6.93672 10.5273 5.50039 11.4844C3.8832 12.5625 2.85391 14.0988 2.52422 15.9277C2.44883 16.3469 2.55117 16.7613 2.80508 17.0648C2.9217 17.2049 3.06278 17.3131 3.22832 17.3893C3.39387 17.4655 3.56776 17.5024 3.75 17.5L17.5 17.5C17.6823 17.5026 17.8564 17.4658 18.0221 17.3896C18.1877 17.3135 18.329 17.2053 18.4457 17.0652C18.6988 16.7617 18.8012 16.3473 18.7258 15.9281ZM3.4375 10L3.4375 8.4375L5 8.4375C5.17259 8.4375 5.3199 8.37648 5.44194 8.25444C5.56398 8.1324 5.625 7.98509 5.625 7.8125C5.625 7.63991 5.56398 7.4926 5.44194 7.37056C5.3199 7.24852 5.17259 7.1875 5 7.1875L3.4375 7.1875L3.4375 5.625C3.4375 5.45241 3.37648 5.3051 3.25444 5.18306C3.1324 5.06102 2.98509 5 2.8125 5C2.63991 5 2.4926 5.06102 2.37056 5.18306C2.24852 5.3051 2.1875 5.45241 2.1875 5.625L2.1875 7.1875L0.625 7.1875C0.452411 7.1875 0.305097 7.24852 0.183058 7.37056C0.0610194 7.4926 -2.48353e-08 7.63991 0 7.8125C-2.48353e-08 7.98509 0.0610194 8.1324 0.183058 8.25444C0.305097 8.37648 0.452411 8.4375 0.625 8.4375L2.1875 8.4375L2.1875 10C2.1875 10.1726 2.24852 10.3199 2.37056 10.4419C2.4926 10.564 2.63991 10.625 2.8125 10.625C2.98509 10.625 3.1324 10.564 3.25444 10.4419C3.37648 10.3199 3.4375 10.1726 3.4375 10Z" fill-rule="nonzero" transform="matrix(1 0 0 1 0.625 1.25)"/>
		</g>
	</g>
</svg>
