<?xml version="1.0" encoding="utf-8" ?>
<svg xmlns="http://www.w3.org/2000/svg" xmlns:xlink="http://www.w3.org/1999/xlink" width="24" height="21.3333" viewBox="0 0 24 21.3333">
	<defs>
		<clipPath id="clipPath3883813720">
			<path d="M0 0L24 0L24 21.3333L0 21.3333L0 0Z" fill-rule="nonzero" transform="matrix(1 0 0 1 0 0)"/>
		</clipPath>
	</defs>
	<g clip-path="url(#clipPath3883813720)">
		<path d="M21.15 6.35232L15.0625 5.56343L12.3417 0.659729C11.8542 -0.214345 10.4417 -0.225456 9.95002 0.659729L7.22919 5.56343L1.14169 6.35232C0.0500199 6.49306 -0.38748 7.68936 0.404186 8.37455L4.80835 12.1894L3.76669 17.5783C3.57919 18.5523 4.73335 19.282 5.70002 18.8264L11.1459 16.282L16.5917 18.8264C17.5584 19.2783 18.7125 18.5523 18.525 17.5782L17.4834 12.1894L21.8875 8.37454C22.6792 7.68936 22.2417 6.49306 21.15 6.35232ZM15.3375 11.5671L16.325 16.6931L11.1459 14.2745L5.96669 16.6931L6.95419 11.5671L2.76252 7.93751L8.55419 7.18936L11.1459 2.52269L13.7375 7.18936L19.5292 7.93751L15.3375 11.5671Z" fill-rule="nonzero" transform="matrix(1 0 0 1 0.854156 1.18473)" fill="rgb(224, 224, 224)"/>
	</g>
</svg>
