<?xml version="1.0" encoding="utf-8" ?>
<svg xmlns="http://www.w3.org/2000/svg" xmlns:xlink="http://www.w3.org/1999/xlink" width="40" height="40" viewBox="0 0 40 40">
	<defs>
		<clipPath id="clipPath3628109135">
			<path d="M0 0L40 0L40 40L0 40L0 0Z" fill-rule="nonzero" transform="matrix(1 0 0 1 0 0)"/>
		</clipPath>
	</defs>
	<g clip-path="url(#clipPath3628109135)">
		<defs>
			<clipPath id="clipPath3876603746">
				<path d="M0 0L40 0L40 40L0 40L0 0Z" fill-rule="nonzero" transform="matrix(1 0 0 1 -0 -0)"/>
			</clipPath>
		</defs>
		<g clip-path="url(#clipPath3876603746)">
			<path d="M-1.25 3.75C-1.25 0.988576 0.988576 -1.25 3.75 -1.25L28.75 -1.25C31.5114 -1.25 33.75 0.988576 33.75 3.75L33.75 23.75C33.75 26.5114 31.5114 28.75 28.75 28.75L3.75 28.75C0.988576 28.75 -1.25 26.5114 -1.25 23.75L-1.25 3.75ZM3.75 1.25C2.36929 1.25 1.25 2.36929 1.25 3.75L1.25 23.75C1.25 25.1307 2.36929 26.25 3.75 26.25L28.75 26.25C30.1307 26.25 31.25 25.1307 31.25 23.75L31.25 3.75C31.25 2.36929 30.1307 1.25 28.75 1.25L3.75 1.25Z" fill-rule="nonzero" transform="matrix(1 0 0 1 3.75 6.25)" fill="rgb(156, 163, 175)"/>
			<path d="M2.5 -1.25Q3.26211 -1.25 3.96005 -0.954793Q4.63324 -0.670058 5.15165 -0.15165Q5.67006 0.366756 5.95479 1.03995Q6.25 1.7379 6.25 2.5Q6.25 3.26211 5.95479 3.96005Q5.67006 4.63324 5.15165 5.15165Q4.63324 5.67006 3.96005 5.95479Q3.2621 6.25 2.5 6.25Q1.73789 6.25 1.03995 5.95479Q0.366757 5.67006 -0.15165 5.15165Q-0.670057 4.63324 -0.954793 3.96005Q-1.25 3.2621 -1.25 2.5Q-1.25 1.73789 -0.954793 1.03995Q-0.670058 0.366757 -0.15165 -0.15165Q0.366756 -0.670057 1.03995 -0.954793Q1.7379 -1.25 2.5 -1.25L2.5 -1.25ZM2.5 1.25Q1.98223 1.25 1.61612 1.61612Q1.25 1.98223 1.25 2.5Q1.25 3.01777 1.61612 3.38388Q1.98223 3.75 2.5 3.75Q3.01777 3.75 3.38388 3.38388Q3.75 3.01777 3.75 2.5Q3.75 1.98223 3.38388 1.61612Q3.01777 1.25 2.5 1.25L2.5 1.25Z" fill-rule="nonzero" transform="matrix(1 0 0 1 23.75 11.25)" fill="rgb(156, 163, 175)"/>
			<path d="M18.8652 8.43516L12.0341 1.6169Q11.6826 1.2654 11.1866 1.25071Q10.6907 1.23601 10.3197 1.56539L0.830569 10.0023C0.314651 10.461 -0.475453 10.4146 -0.93416 9.8987C-1.39287 9.38278 -1.34649 8.59267 -0.830569 8.13397L8.65996 -0.304137Q9.77298 -1.29228 11.2607 -1.2482Q12.7484 -1.20411 13.8002 -0.152522L20.633 6.66739L22.5021 4.79831Q23.5287 3.76962 24.9817 3.70221Q26.4347 3.6348 27.5531 4.56482L33.3006 9.35816C33.8308 9.80032 33.9021 10.5886 33.46 11.1187C33.0178 11.6489 32.2296 11.7203 31.6994 11.2781L25.9547 6.48706Q25.5819 6.17706 25.0975 6.19953Q24.6132 6.222 24.2698 6.56607L14.6339 16.202C14.1457 16.6902 13.3543 16.6902 12.8661 16.202C12.378 15.7139 12.378 14.9224 12.8661 14.4342L18.8652 8.43516Z" fill-rule="evenodd" transform="matrix(1 0 0 1 3.75 18.4319)" fill="rgb(156, 163, 175)"/>
		</g>
	</g>
</svg>
