<?xml version="1.0" encoding="utf-8" ?>
<svg xmlns="http://www.w3.org/2000/svg" xmlns:xlink="http://www.w3.org/1999/xlink" width="24" height="22.9254" viewBox="0 0 24 22.9254">
	<defs>
		<clipPath id="clipPath9359773612">
			<path d="M0 0L24 0L24 22.9254L0 22.9254L0 0Z" fill-rule="nonzero" transform="matrix(1 0 0 1 0 0)"/>
		</clipPath>
	</defs>
	<g clip-path="url(#clipPath9359773612)">
		<path d="M22.7711 7.33569L16.2172 6.42424L13.2884 0.761755C13.0251 0.255772 12.5115 0 11.998 0C11.4875 0 10.9775 0.25235 10.7133 0.761755L7.78363 6.42381L1.2293 7.33441C0.0539306 7.49694 -0.417114 8.87802 0.434975 9.66929L5.17632 14.0747L4.05423 20.2971C3.89483 21.1859 4.63766 21.8989 5.4696 21.8989C5.69035 21.8989 5.91736 21.8488 6.13542 21.7385L11.9989 18.8009L17.8618 21.7393C18.0795 21.8484 18.306 21.898 18.5259 21.898C19.3587 21.898 20.1029 21.1876 19.9435 20.2984L18.8227 14.0756L23.565 9.671C24.4175 8.87973 23.9465 7.49822 22.7711 7.33569ZM17.32 12.6051L16.5087 13.3587L16.7003 14.4229L17.5744 19.2753L13.0014 16.9832L11.9993 16.481L12.0006 2.91443L14.2856 7.33227L14.7862 8.30018L15.906 8.45587L21.0208 9.16716L17.32 12.6051Z" fill-rule="nonzero" transform="matrix(1 0 0 1 -0.000213623 0.513264)"/>
	</g>
</svg>
