<?xml version="1.0" encoding="utf-8" ?>
<svg xmlns="http://www.w3.org/2000/svg" xmlns:xlink="http://www.w3.org/1999/xlink" width="20" height="20" viewBox="0 0 20 20">
	<defs>
		<clipPath id="clipPath0403789214">
			<path transform="matrix(1 0 0 1 0 0)" d="M0 0L20 0L20 20L0 20L0 0Z" fill-rule="nonzero"/>
		</clipPath>
	</defs>
	<g clip-path="url(#clipPath0403789214)">
		<defs>
			<clipPath id="clipPath1047609112">
				<path transform="matrix(1 0 0 1 -0 -0)" d="M0 0L20 0L20 20L0 20L0 0Z" fill-rule="nonzero"/>
			</clipPath>
		</defs>
		<g clip-path="url(#clipPath1047609112)">
			<path transform="matrix(1 0 0 1 1.875 1.875)" d="M6.43732 2.59831Q6.01953 3.5785 6.01953 4.65508Q6.01953 5.18456 6.04164 5.4542Q6.06376 5.72392 6.1148 5.96211Q0.245339 12.8533 -0.166128 13.2579Q-0.382391 13.4558 -0.502159 13.7239Q-0.624807 13.9985 -0.625 14.2992Q-0.625 14.6755 -0.435591 15.053Q-0.292753 15.3377 -0.0766499 15.5637Q0.290781 15.9478 0.78834 16.3425Q1.1137 16.6006 1.35023 16.7265Q1.97319 17.0581 2.37069 16.6759Q2.75891 16.2978 3.10419 15.934Q3.26018 15.7696 3.34464 15.6865Q3.67152 15.3665 3.68978 14.8502Q3.69764 14.6277 3.62932 14.236Q3.60721 14.1092 3.59946 14.0464Q3.60859 14.0474 3.62014 14.0489Q3.67871 14.0567 3.83753 14.0905Q4.20249 14.1681 4.40225 14.1707Q4.78899 14.1753 5.10916 14.0023Q5.31239 13.8925 5.57932 13.6427Q5.8066 13.4337 5.92569 13.241Q6.11184 12.9398 6.11712 12.5863Q6.12204 12.3653 5.9907 12.0361Q6.14946 12.1076 6.24739 12.1405Q6.52677 12.2341 6.77154 12.2056Q7.26282 12.1483 7.73941 11.6809Q8.16921 11.2593 8.2519 10.8713Q8.30569 10.6189 8.1869 10.3073Q8.14417 10.1953 8.03397 9.97204Q7.97861 9.85989 7.94357 9.78236Q8.01729 9.80178 8.11887 9.82982Q8.37831 9.90142 8.49657 9.92769Q8.80195 9.99551 8.99605 9.95331Q9.19809 9.91002 9.4248 9.77352Q9.50322 9.72631 9.62693 9.63942Q10.4562 9.92851 11.4062 9.92851Q12.5141 9.92851 13.5274 9.51637Q14.5078 9.11759 15.2647 8.38977Q16.0241 7.65957 16.4415 6.71084Q16.875 5.72557 16.875 4.64727Q16.875 3.56887 16.4414 2.58477Q16.0239 1.63729 15.2641 0.908672Q14.5073 0.182888 13.5267 -0.214551Q12.514 -0.625 11.4062 -0.625Q10.2978 -0.625 9.29529 -0.211966Q8.32614 0.187343 7.58355 0.918237Q6.84255 1.64757 6.43732 2.59831ZM7.28746 5.35205Q7.26953 5.1334 7.26953 4.65508Q7.26953 3.83378 7.58722 3.08843Q7.89554 2.36507 8.46039 1.80911Q9.02858 1.24987 9.77148 0.943778Q10.5452 0.625 11.4062 0.625Q12.2703 0.625 13.0572 0.943921Q13.8154 1.2512 14.3989 1.81086Q14.9799 2.36801 15.2975 3.08879Q15.625 3.83205 15.625 4.64727Q15.625 5.46276 15.2974 6.20747Q14.9795 6.9299 14.3983 7.48874Q13.8145 8.05016 13.0565 8.35848Q12.2696 8.67851 11.4062 8.67851Q10.5217 8.67851 9.79095 8.36263Q9.72142 8.33257 9.64672 8.32Q9.57202 8.30742 9.49648 8.31306Q9.42094 8.31869 9.34893 8.34221Q9.27692 8.36573 9.21262 8.40577Q9.13258 8.4556 8.98085 8.56497Q8.83568 8.66961 8.77348 8.70872Q8.77058 8.70808 8.76758 8.70742Q8.68029 8.68803 8.45144 8.62487Q8.19202 8.55327 8.07374 8.527Q7.76836 8.45918 7.57426 8.50137Q7.26418 8.56878 6.97912 8.86198Q6.71522 9.13343 6.65193 9.40477Q6.58399 9.7071 6.7169 10.0832Q6.77249 10.2405 6.91309 10.5253Q6.95279 10.6057 6.97858 10.6609Q6.92931 10.7245 6.8641 10.7885Q6.77078 10.88 6.68433 10.9325Q6.66199 10.9461 6.64359 10.9549Q6.58825 10.9362 6.43744 10.8659Q6.07451 10.6967 5.85272 10.6605Q5.31221 10.5723 4.93378 10.9429Q4.5527 11.3161 4.61323 11.8422Q4.63946 12.0702 4.79777 12.4242Q4.84924 12.5392 4.86343 12.5805Q4.84397 12.6208 4.72537 12.7299Q4.57621 12.8694 4.51486 12.9026Q4.47989 12.9215 4.41807 12.9208Q4.34175 12.9198 4.09754 12.8679Q3.89178 12.8241 3.78566 12.8099Q3.54291 12.7775 3.35562 12.8169Q3.03423 12.8846 2.83209 13.0349Q2.57787 13.224 2.42163 13.5886Q2.32794 13.8072 2.34912 14.1015Q2.35763 14.2198 2.39791 14.4507Q2.44381 14.7139 2.44056 14.806Q2.4402 14.8161 2.43972 14.8235Q2.34519 14.9179 2.1975 15.0735Q1.98961 15.2925 1.76712 15.5154Q1.67745 15.4522 1.56518 15.3632Q1.13481 15.0218 0.82665 14.6996Q0.740328 14.6094 0.681684 14.4925Q0.625 14.3795 0.625 14.3Q0.625022 14.2653 0.639162 14.2337Q0.653301 14.202 0.679108 14.1789Q0.687224 14.1716 0.695081 14.164Q1.11588 13.7591 7.07846 6.75848Q7.21794 6.59472 7.28048 6.52129Q7.33346 6.45909 7.36867 6.38536Q7.40388 6.31163 7.41896 6.23133Q7.43403 6.15102 7.42796 6.06954Q7.42188 5.98806 7.39507 5.91088Q7.3142 5.67815 7.28746 5.35205ZM14.375 3.75Q14.375 4.52665 13.8258 5.07583Q13.2767 5.625 12.5 5.625Q11.7233 5.625 11.1742 5.07583Q10.625 4.52665 10.625 3.75Q10.625 2.97335 11.1742 2.42418Q11.7233 1.875 12.5 1.875Q13.2767 1.875 13.8258 2.42418Q14.375 2.97335 14.375 3.75ZM13.125 3.75Q13.125 3.49112 12.9419 3.30806Q12.7589 3.125 12.5 3.125Q12.2411 3.125 12.0581 3.30806Q11.875 3.49112 11.875 3.75Q11.875 4.00888 12.0581 4.19194Q12.2411 4.375 12.5 4.375Q12.7589 4.375 12.9419 4.19194Q13.125 4.00888 13.125 3.75Z" fill-rule="evenodd"/>
		</g>
	</g>
</svg>
