<?xml version="1.0" encoding="utf-8" ?>
<svg xmlns="http://www.w3.org/2000/svg" xmlns:xlink="http://www.w3.org/1999/xlink" width="16" height="16" viewBox="0 0 16 16">
	<defs>
		<clipPath id="clipPath7412038526">
			<path transform="matrix(1 0 0 1 -0 -0)" d="M0 0L16 0L16 16L0 16L0 0Z" fill-rule="nonzero"/>
		</clipPath>
	</defs>
	<g clip-path="url(#clipPath7412038526)">
		<path transform="matrix(1 0 0 1 2.66667 4)" d="M11.1381 -0.471405C10.8777 -0.731752 10.4556 -0.731752 10.1953 -0.471404L3.33333 6.39052L0.471405 3.5286C0.211057 3.26825 -0.211057 3.26825 -0.471405 3.5286C-0.731752 3.78894 -0.731752 4.21106 -0.471404 4.4714L2.86193 7.80474Q2.90836 7.85117 2.96295 7.88765Q3.01755 7.92412 3.07821 7.94925Q3.13887 7.97438 3.20327 7.98719Q3.26767 8 3.33333 8Q3.39899 8 3.46339 7.98719Q3.52779 7.97438 3.58846 7.94925Q3.64912 7.92412 3.70371 7.88765Q3.75831 7.85117 3.80474 7.80474L11.1381 0.471404C11.3984 0.211057 11.3984 -0.211057 11.1381 -0.471405Z" fill-rule="evenodd"/>
	</g>
</svg>
