<?xml version="1.0" encoding="utf-8" ?>
<svg xmlns="http://www.w3.org/2000/svg" xmlns:xlink="http://www.w3.org/1999/xlink" width="16" height="16" viewBox="0 0 16 16">
	<defs>
		<clipPath id="clipPath3380915137">
			<path transform="matrix(1 0 0 1 -0 -0)" d="M0 0L16 0L16 16L0 16L0 0Z" fill-rule="nonzero"/>
		</clipPath>
	</defs>
	<g clip-path="url(#clipPath3380915137)">
		<path transform="matrix(1 0 0 1 4 4)" d="M8.4714 -0.471405C8.21106 -0.731752 7.78894 -0.731752 7.5286 -0.471404L-0.471405 7.5286C-0.731752 7.78894 -0.731752 8.21106 -0.471405 8.4714C-0.211057 8.73175 0.211057 8.73175 0.471405 8.4714L8.47141 0.471404C8.73175 0.211057 8.73175 -0.211057 8.4714 -0.471405Z" fill-rule="evenodd"/>
		<path transform="matrix(1 0 0 1 4 4)" d="M-0.471405 -0.471404C-0.731752 -0.211057 -0.731752 0.211057 -0.471404 0.471405L7.5286 8.4714C7.78894 8.73175 8.21106 8.73175 8.4714 8.4714C8.73175 8.21106 8.73175 7.78894 8.4714 7.5286L0.471405 -0.471405C0.211057 -0.731752 -0.211057 -0.731752 -0.471405 -0.471404Z" fill-rule="evenodd"/>
	</g>
</svg>
