<?xml version="1.0" encoding="utf-8" ?>
<svg xmlns="http://www.w3.org/2000/svg" xmlns:xlink="http://www.w3.org/1999/xlink" width="18.75" height="17.5" viewBox="0 0 18.75 17.5">
	<path d="M17.5 6.875L10.7812 6.875Q10.6823 6.875 10.5881 6.84441Q10.494 6.81383 10.4139 6.75565Q10.3338 6.69747 10.2756 6.61739Q10.2174 6.53732 10.1869 6.44318L8.1556 0.193179L8.75 0L9.3444 0.193179L7.31315 6.44318Q7.28255 6.53732 7.22436 6.61739Q7.16618 6.69747 7.0861 6.75565Q7.00601 6.81383 6.91187 6.84441Q6.81773 6.875 6.71875 6.875L0 6.875L0 6.25L0.353455 5.73454L5.82221 9.48454Q5.86402 9.51322 5.90067 9.54826Q5.93732 9.5833 5.96784 9.62379Q5.99836 9.66428 6.02196 9.70917Q6.04555 9.75405 6.06161 9.80214Q6.07766 9.85024 6.08575 9.9003Q6.09384 9.95035 6.09375 10.0011Q6.09366 10.0518 6.08541 10.1018Q6.07715 10.1518 6.06093 10.1999L3.95156 16.4499L3.35938 16.25L2.99264 15.7439L8.38327 11.8377Q8.46326 11.7797 8.55723 11.7492Q8.65121 11.7188 8.75 11.7188Q8.84879 11.7188 8.94276 11.7492Q9.03674 11.7797 9.11673 11.8377L14.5074 15.7439L14.1406 16.25L13.5484 16.4499L11.4391 10.1999Q11.4229 10.1518 11.4146 10.1018Q11.4063 10.0518 11.4063 10.0011Q11.4062 9.95035 11.4143 9.9003Q11.4223 9.85024 11.4384 9.80214Q11.4544 9.75405 11.478 9.70917Q11.5016 9.66428 11.5322 9.62379Q11.5627 9.5833 11.5993 9.54826Q11.636 9.51322 11.6778 9.48454L17.1465 5.73454L17.5 6.25L17.5 6.875ZM17.5 5.625Q17.5761 5.625 17.65 5.64328Q17.7239 5.66155 17.7913 5.69704Q17.8587 5.73252 17.9155 5.78314Q17.9724 5.83376 18.0155 5.89654Q18.0503 5.94731 18.0745 6.0039Q18.0987 6.06048 18.1115 6.12071Q18.1242 6.18093 18.125 6.24248Q18.1257 6.30404 18.1144 6.36455Q18.1031 6.42507 18.0803 6.48222Q18.0574 6.53937 18.0238 6.59096Q17.9902 6.64255 17.9472 6.68659Q17.9042 6.73064 17.8535 6.76546L12.3847 10.5155L12.0312 10L12.6234 9.80014L14.7328 16.0501Q14.7567 16.121 14.7632 16.1955Q14.7698 16.27 14.7585 16.3439Q14.7473 16.4178 14.7189 16.487Q14.6906 16.5562 14.6467 16.6167Q14.6106 16.6666 14.5654 16.7084Q14.5203 16.7503 14.4679 16.7825Q14.4154 16.8147 14.3577 16.8361Q14.3 16.8575 14.2392 16.8672Q14.1784 16.8769 14.1169 16.8745Q14.0554 16.8722 13.9955 16.8579Q13.9356 16.8436 13.8797 16.8179Q13.8237 16.7922 13.7739 16.7561L8.38327 12.8498L8.75 12.3438L9.11673 12.8498L3.72611 16.7561Q3.66556 16.8 3.59637 16.8283Q3.52719 16.8567 3.45326 16.8679Q3.37934 16.8791 3.30485 16.8726Q3.23036 16.8661 3.15951 16.8422Q3.10119 16.8225 3.04782 16.7918Q2.99446 16.7611 2.94811 16.7206Q2.90176 16.6801 2.8642 16.6313Q2.82664 16.5826 2.79931 16.5274Q2.77199 16.4722 2.75596 16.4128Q2.73992 16.3534 2.73579 16.292Q2.73165 16.2306 2.73958 16.1695Q2.74751 16.1085 2.76719 16.0501L4.87657 9.80014L5.46875 10L5.11529 10.5155L-0.353455 6.76546Q-0.416244 6.7224 -0.466861 6.66553Q-0.517478 6.60866 -0.552962 6.5413Q-0.588447 6.47394 -0.606723 6.40004Q-0.625 6.32613 -0.625 6.25Q-0.625 6.18844 -0.612991 6.12807Q-0.600982 6.06769 -0.577425 6.01082Q-0.553868 5.95395 -0.519669 5.90277Q-0.485469 5.85158 -0.441942 5.80806Q-0.398414 5.76453 -0.347231 5.73033Q-0.296048 5.69613 -0.239177 5.67257Q-0.182306 5.64902 -0.121931 5.63701Q-0.0615571 5.625 0 5.625L6.71875 5.625L6.71875 6.25L6.12435 6.05682L8.1556 -0.193179Q8.17846 -0.263519 8.21711 -0.326581Q8.25576 -0.389643 8.30806 -0.441942Q8.36036 -0.494241 8.42342 -0.532888Q8.48648 -0.571536 8.55682 -0.594396Q8.61536 -0.613423 8.67649 -0.620662Q8.73762 -0.627902 8.79899 -0.623077Q8.86036 -0.618252 8.91961 -0.601547Q8.97885 -0.584842 9.0337 -0.5569Q9.08855 -0.528957 9.1369 -0.490851Q9.18524 -0.452745 9.22522 -0.40594Q9.26521 -0.359134 9.29529 -0.305428Q9.32537 -0.251722 9.3444 -0.193179L11.3756 6.05682L10.7812 6.25L10.7812 5.625L17.5 5.625Z" fill-rule="nonzero" transform="matrix(1 0 0 1 0.625 0.625)"/>
</svg>
