<?xml version="1.0" encoding="utf-8" ?>
<svg xmlns="http://www.w3.org/2000/svg" xmlns:xlink="http://www.w3.org/1999/xlink" width="80" height="80" viewBox="0 0 80 80">
	<defs>
		<clipPath id="clipPath0949864273">
			<path d="M0 0L80 0L80 80L0 80L0 0Z" fill-rule="nonzero" transform="matrix(1 0 0 1 -0 -0)"/>
		</clipPath>
	</defs>
	<g clip-path="url(#clipPath0949864273)">
		<path d="M77.5 38.75C77.5 60.1511 60.1511 77.5 38.75 77.5C17.3489 77.5 0 60.1511 0 38.75C0 17.3489 17.3489 0 38.75 0C60.1511 0 77.5 17.3489 77.5 38.75ZM34.2678 59.2678L63.0178 30.5178C63.9941 29.5416 63.9941 27.9586 63.0178 26.9823L59.4823 23.4469C58.5061 22.4705 56.9231 22.4705 55.9467 23.4469L32.5 46.8934L21.5533 35.9467C20.577 34.9705 18.9941 34.9705 18.0177 35.9467L14.4822 39.4822C13.5059 40.4584 13.5059 42.0414 14.4822 43.0177L30.7322 59.2677C31.7086 60.2441 33.2914 60.2441 34.2678 59.2678Z" fill-rule="nonzero" transform="matrix(1 0 0 1 1.25 1.25)" fill="rgb(76, 175, 80)"/>
	</g>
</svg>
