<?xml version="1.0" encoding="utf-8" ?>
<svg xmlns="http://www.w3.org/2000/svg" xmlns:xlink="http://www.w3.org/1999/xlink" width="20" height="20" viewBox="0 0 20 20">
	<defs>
		<clipPath id="clipPath8893859280">
			<path transform="matrix(1 0 0 1 0 0)" d="M0 0L20 0L20 20L0 20L0 0Z" fill-rule="nonzero"/>
		</clipPath>
	</defs>
	<g clip-path="url(#clipPath8893859280)">
		<defs>
			<clipPath id="clipPath4108935397">
				<path transform="matrix(1 0 0 1 -0 -0)" d="M0 0L20 0L20 20L0 20L0 0Z" fill-rule="nonzero"/>
			</clipPath>
		</defs>
		<g clip-path="url(#clipPath4108935397)">
			<path transform="matrix(1 0 0 1 1.25005 1.25005)" d="M12.6068 4.89494Q11.9281 4.21603 11.8915 3.25676Q11.8549 2.29749 12.4798 1.56883Q12.358 1.71162 12.3658 1.89742Q12.3736 2.08323 12.5057 2.21415L10.7796 0.486172Q10.9185 0.625 11.1144 0.625Q11.3103 0.625 11.4488 0.486528L8.70126 3.23408Q8.67668 3.25866 8.65844 3.28817Q8.64021 3.31767 8.62925 3.35058Q8.51457 3.69698 8.25618 3.95623Q7.99779 4.21549 7.6507 4.33168Q7.61671 4.34301 7.58697 4.36137Q7.55722 4.37973 7.53248 4.40443L0.486373 11.449Q0.625 11.3103 0.625 11.1144Q0.625 10.9185 0.486527 10.78L2.21025 12.5037Q2.08128 12.3736 1.89547 12.3658Q1.70967 12.358 1.56818 12.4787Q2.29515 11.8544 3.25484 11.8908Q4.21454 11.9272 4.89363 12.6063Q5.57272 13.2854 5.60911 14.2451Q5.64551 15.2048 5.01979 15.9333Q5.14186 15.7902 5.13408 15.6044Q5.12631 15.4186 4.99423 15.2877L6.72002 17.0135Q6.58137 16.8749 6.3855 16.8749Q6.18962 16.8749 6.05108 17.0134L13.0979 9.96698Q13.1221 9.94268 13.1405 9.91293Q13.1588 9.88319 13.1699 9.85001Q13.2845 9.5037 13.5429 9.24445Q13.8013 8.9852 14.1484 8.869Q14.1822 8.85774 14.2117 8.8395Q14.2412 8.82127 14.2658 8.79674L17.0135 6.04903Q16.8749 6.18767 16.8749 6.38355Q16.8749 6.57942 17.0134 6.71796L15.2896 4.99424Q15.4186 5.12436 15.6044 5.13213Q15.7902 5.1399 15.9317 5.01921Q15.2061 5.64352 14.2468 5.60843Q13.2876 5.57334 12.6076 4.89581L12.6068 4.89494ZM13.4899 4.01034Q13.8229 4.34208 14.2925 4.35926Q14.7622 4.37644 15.1205 4.06819Q15.3523 3.87049 15.6567 3.88322Q15.961 3.89595 16.1735 4.11035L17.8975 5.83429Q18.1249 6.06183 18.1249 6.38355Q18.1249 6.70526 17.8974 6.93291L15.1498 9.68051Q15.0223 9.80805 14.8688 9.90285Q14.7154 9.99765 14.5452 10.0543Q14.4782 10.0768 14.4283 10.1269Q14.3784 10.1769 14.3558 10.2452Q14.2988 10.4162 14.2041 10.5695Q14.1095 10.7229 13.9817 10.8509L6.93475 17.8975Q6.70721 18.1249 6.3855 18.1249Q6.06378 18.1249 5.83613 17.8974L4.11426 16.1755Q3.8979 15.961 3.88517 15.6567Q3.87244 15.3523 4.07151 15.1189Q4.37783 14.7622 4.36001 14.2924Q4.34219 13.8226 4.00974 13.4902Q3.67729 13.1577 3.20747 13.1399Q2.73765 13.1221 2.37938 13.4298Q2.1476 13.6275 1.84324 13.6147Q1.53887 13.602 1.32637 13.3876L-0.397566 11.6637Q-0.625 11.4361 -0.625 11.1144Q-0.625 10.7927 -0.397412 10.565L6.64945 3.51969Q6.77701 3.39238 6.93037 3.29771Q7.08372 3.20304 7.25388 3.14634Q7.32092 3.1239 7.37082 3.07383Q7.42073 3.02376 7.4433 2.95557Q7.50029 2.78448 7.5951 2.63105Q7.68991 2.47764 7.81738 2.3502L10.5651 -0.397567Q10.7927 -0.625 11.1144 -0.625Q11.4361 -0.625 11.664 -0.397211L13.3856 1.32637Q13.602 1.54083 13.6147 1.8452Q13.6275 2.14956 13.4286 2.38263Q13.1226 2.73941 13.1406 3.2091Q13.1585 3.67879 13.4908 4.01121L13.4899 4.01034Z" fill-rule="nonzero "/>
			<path transform="matrix(1 0 0 1 9.14023 4.84102)" d="M-0.441942 -0.441942C-0.686017 -0.197866 -0.686017 0.197866 -0.441942 0.441942L0.20298 1.08686C0.447055 1.33094 0.842788 1.33094 1.08686 1.08686C1.33094 0.842788 1.33094 0.447056 1.08686 0.20298L0.441942 -0.441942C0.197866 -0.686017 -0.197866 -0.686017 -0.441942 -0.441942ZM1.49223 1.49302C1.24827 1.73721 1.24845 2.13294 1.49263 2.37691L1.92271 2.8066C2.1669 3.05056 2.56263 3.05038 2.8066 2.80619C3.05056 2.56201 3.05038 2.16627 2.80619 1.92231L2.37612 1.49262C2.13193 1.24866 1.7362 1.24884 1.49223 1.49302ZM3.21215 4.09604C2.96819 3.85185 2.96837 3.45612 3.21256 3.21215C3.45674 2.96819 3.85247 2.96837 4.09644 3.21256L4.52613 3.64263C4.77009 3.88682 4.76991 4.28255 4.52573 4.52652C4.28154 4.77048 3.88581 4.7703 3.64184 4.52612L3.21215 4.09604ZM4.93189 5.81577C4.68781 5.57169 4.68781 5.17596 4.93189 4.93189C5.17596 4.68781 5.57169 4.68781 5.81577 4.93189L6.46069 5.57681C6.70477 5.82088 6.70477 6.21662 6.46069 6.46069C6.21662 6.70477 5.82088 6.70477 5.57681 6.46069L4.93189 5.81577Z" fill-rule="evenodd"/>
		</g>
	</g>
</svg>
